<svg xmlns="http://www.w3.org/2000/svg" viewBox="0 0 512 512">
  <defs>
    <linearGradient id="bg" x1="0" y1="0" x2="1" y2="1">
      <stop offset="0%" stop-color="#1ee2cf"/>
      <stop offset="100%" stop-color="#2f89ff"/>
    </linearGradient>
  </defs>
  <rect width="512" height="512" rx="120" fill="#081224"/>
  <rect x="52" y="52" width="408" height="408" rx="96" fill="url(#bg)"/>
  <path d="M169 146h174c25 0 44 19 44 44v138c0 25-19 44-44 44H169c-25 0-44-19-44-44V190c0-25 19-44 44-44Z" fill="#081224"/>
  <path d="M256 192c-38 0-69 31-69 69s31 69 69 69 69-31 69-69-31-69-69-69Zm0 25c24 0 44 20 44 44s-20 44-44 44-44-20-44-44 20-44 44-44Z" fill="#1ee2cf"/>
  <path d="M208 84h96v46h-96z" fill="#081224"/>
</svg>
