<svg xmlns="http://www.w3.org/2000/svg" viewBox="0 0 192 192">
  <defs>
    <linearGradient id="bg" x1="0" y1="0" x2="1" y2="1">
      <stop offset="0%" stop-color="#1ee2cf"/>
      <stop offset="100%" stop-color="#2f89ff"/>
    </linearGradient>
  </defs>
  <rect width="192" height="192" rx="42" fill="#081224"/>
  <rect x="20" y="20" width="152" height="152" rx="34" fill="url(#bg)"/>
  <path d="M62 55h68c8 0 14 6 14 14v54c0 8-6 14-14 14H62c-8 0-14-6-14-14V69c0-8 6-14 14-14Z" fill="#081224"/>
  <path d="M96 73c-15 0-27 12-27 27s12 27 27 27 27-12 27-27-12-27-27-27Zm0 10c9 0 17 8 17 17s-8 17-17 17-17-8-17-17 8-17 17-17Z" fill="#1ee2cf"/>
  <path d="M77 32h38v18H77z" fill="#081224"/>
</svg>
